<svg width="1440" height="2079" viewBox="0 0 1440 2079" fill="none" xmlns="http://www.w3.org/2000/svg">
<path d="M1.48474e-07 0V254.197L1123.43 1379.39V1133.92L1.48474e-07 0Z" transform="matrix(0.881566 -0.472062 0.471512 0.88186 -533.73 862.493)" fill="#F9EC7A"/>
<path d="M1.48474e-07 0V254.197L1123.43 1379.39V1133.92L1.48474e-07 0Z" transform="matrix(0.881566 -0.472062 0.471512 0.88186 -533.73 862.493)" fill="url(#paint0_linear)"/>
<path d="M1.48474e-07 0V254.197L1123.43 1379.39V1133.92L1.48474e-07 0Z" transform="matrix(0.881566 -0.472062 0.471512 0.88186 -533.73 862.493)" stroke="#171B1C" stroke-width="5.5" stroke-miterlimit="10" stroke-linecap="round" stroke-linejoin="round"/>
<path d="M235.397 0H1.48474e-07L1123.43 1137.66L1246.73 1014.3L235.397 0Z" transform="matrix(0.881566 -0.472062 0.471512 0.88186 -533.73 862.493)" fill="url(#paint1_linear)" stroke="black" stroke-width="5.5" stroke-miterlimit="10" stroke-linecap="round" stroke-linejoin="round"/>
<path d="M0 1275.97V1034.23L1030.02 3.80269e-05L1160.79 118.376L0 1275.97Z" transform="matrix(0.881566 -0.472062 0.471512 0.88186 505.41 423.37)" fill="url(#paint2_linear)" stroke="black" stroke-width="5.5" stroke-miterlimit="10" stroke-linecap="round" stroke-linejoin="round"/>
<path d="M1381.24 0H1160.79L0 1157.59H256.57L1381.24 0Z" transform="matrix(0.881566 -0.472062 0.471512 0.88186 561.547 527.326)" fill="#F9EC7A"/>
<path d="M1381.24 0H1160.79L0 1157.59H256.57L1381.24 0Z" transform="matrix(0.881566 -0.472062 0.471512 0.88186 561.547 527.326)" fill="url(#paint3_linear)"/>
<path d="M1381.24 0H1160.79L0 1157.59H256.57L1381.24 0Z" transform="matrix(0.881566 -0.472062 0.471512 0.88186 561.547 527.326)" stroke="#171B1C" stroke-width="5.5" stroke-miterlimit="10" stroke-linecap="round" stroke-linejoin="round"/>
<defs>
<linearGradient id="paint0_linear" x2="1" gradientUnits="userSpaceOnUse" gradientTransform="matrix(-829.956 -793.661 876.071 -733.253 673.755 1518.42)">
<stop stop-color="#F9EC7A"/>
<stop offset="1" stop-color="#A4EDDC"/>
</linearGradient>
<linearGradient id="paint1_linear" x2="1" gradientUnits="userSpaceOnUse" gradientTransform="matrix(843.622 848.563 -678.328 983.947 686.986 -266.814)">
<stop stop-color="#F9EC7A"/>
<stop offset="1" stop-color="#A4EDDC"/>
</linearGradient>
<linearGradient id="paint2_linear" x2="1" gradientUnits="userSpaceOnUse" gradientTransform="translate(-545.076 670.977) scale(1501.23 1501.96) rotate(-46.023)">
<stop stop-color="#F9EC7A"/>
<stop offset="1" stop-color="#A4EDDC"/>
</linearGradient>
<linearGradient id="paint3_linear" x2="1" gradientUnits="userSpaceOnUse" gradientTransform="matrix(-923.521 867.667 -1090.99 -667.882 1597.09 629.735)">
<stop stop-color="#F9EC7A"/>
<stop offset="1" stop-color="#A4EDDC"/>
</linearGradient>
</defs>
</svg>
