<svg width="246" height="54" viewBox="0 0 246 54" fill="none" xmlns="http://www.w3.org/2000/svg">
<path d="M2.7367 3.31844L0.304078 1.1508e-06H2.7367L3.95301 1.81006L5.16932 1.1508e-06H7.29786L4.86524 3.31844L7.60194 7.24022H5.4734L3.95301 4.82682L2.43262 7.24022H9.06222e-09L2.7367 3.31844Z" transform="translate(0.609375 44.0447)" fill="#F15F62"/>
<path d="M6.99379 1.50838H0V1.1508e-06H6.99379V1.50838ZM6.99379 4.22346H0V2.71508H6.99379V4.22346Z" transform="translate(10.6436 45.5531)" fill="black"/>
<path d="M2.12854 1.50838H2.89991e-07V-5.75401e-07H2.12854V1.50838ZM2.89991e-07 2.71509H2.12854V9.95531H2.89991e-07V2.71509Z" transform="translate(20.9824 41.3297)" fill="black"/>
<path d="M0 0.301677H1.82447V1.2067C2.43262 0.301675 3.34485 0 3.95301 0C6.08155 0 6.68971 1.2067 6.68971 3.01676V7.5419H4.86524V3.62011C4.86524 2.41341 4.56116 1.81006 3.64893 1.81006C2.43262 1.81006 2.12854 2.41341 2.12854 3.92179V7.5419H0V0.301677Z" transform="translate(24.3262 43.743)" fill="black"/>
<path d="M5.4734 8.74861C4.86524 9.65364 4.25709 9.95531 3.34486 9.95531C1.21631 9.95531 0 8.14525 0 6.03352C0 4.22346 1.21631 2.41341 3.34486 2.41341C4.25709 2.41341 5.16932 2.71508 5.4734 3.62011V5.75401e-07H7.60194V9.65363H5.77747V8.74861H5.4734ZM3.95301 3.62011C2.7367 3.62011 2.12854 4.82682 2.12854 6.03352C2.12854 7.24022 2.7367 8.44693 3.95301 8.44693C5.16932 8.44693 5.77747 7.24022 5.77747 6.03352C5.4734 4.82682 5.16932 3.62011 3.95301 3.62011Z" transform="translate(31.9287 41.6313)" fill="black"/>
<path d="M1.82446 4.52514C1.82446 5.73184 2.43262 6.3352 3.64893 6.3352C4.56116 6.3352 5.16932 5.73185 5.16932 5.43017H6.99379C6.38563 7.24023 5.16932 7.84358 3.64893 7.84358C1.52039 7.84358 5.79982e-07 6.3352 5.79982e-07 3.92179C5.79982e-07 1.81006 1.52039 -1.1508e-06 3.64893 -1.1508e-06C6.08155 -1.1508e-06 7.29786 2.11173 7.29786 4.22346H1.82446V4.52514ZM5.16932 3.31844C4.86524 2.41341 4.56116 1.81006 3.64893 1.81006C2.43262 1.81006 2.12854 2.71508 2.12854 3.31844H5.16932Z" transform="translate(40.4424 43.4413)" fill="black"/>
<path d="M-1.15996e-06 0.301677H1.82447V1.2067C2.43262 0.301675 3.04078 0 3.95301 0C6.08156 0 7.29786 1.81006 7.29786 3.92179C7.29786 5.73184 6.38563 7.5419 4.25708 7.5419C3.34485 7.5419 2.43262 7.24022 2.12854 6.3352V9.65363H-1.15996e-06V0.301677ZM5.4734 3.92179C5.4734 2.71508 4.86524 1.50838 3.64893 1.50838C2.43262 1.50838 1.82447 2.71508 1.82447 3.92179C1.82447 5.12849 2.12854 6.3352 3.64893 6.3352C4.86524 6.03352 5.4734 5.12849 5.4734 3.92179Z" transform="translate(48.3496 43.743)" fill="black"/>
<path d="M1.82447 4.52514C1.82447 5.73184 2.43262 6.3352 3.64893 6.3352C4.56116 6.3352 5.16932 5.73185 5.16932 5.43017H6.99379C6.38563 7.24023 5.16932 7.84358 3.64893 7.84358C1.52039 7.84358 1.15996e-06 6.3352 1.15996e-06 3.92179C1.15996e-06 1.81006 1.52039 -1.1508e-06 3.64893 -1.1508e-06C6.08155 -1.1508e-06 7.29786 2.11173 7.29786 4.22346H1.82447V4.52514ZM4.86524 3.31844C4.86524 2.41341 4.25709 1.81006 3.34486 1.81006C2.12855 1.81006 1.82447 2.71508 1.82447 3.31844H4.86524Z" transform="translate(56.5576 43.4413)" fill="black"/>
<path d="M0.30408 0.301677H2.12854V1.2067C2.7367 0.301675 3.64893 0 4.25709 0C6.38563 0 6.99378 1.2067 6.99378 3.01676V7.5419H4.86524V3.62011C4.86524 2.41341 4.56116 1.81006 3.64893 1.81006C2.43262 1.81006 2.12854 2.41341 2.12854 3.92179V7.5419H1.15996e-06V0.301677H0.30408Z" transform="translate(64.1592 43.743)" fill="black"/>
<path d="M5.4734 8.74861C4.86524 9.65364 4.25708 9.95531 3.34485 9.95531C1.21631 9.95531 2.31993e-06 8.14525 2.31993e-06 6.03352C2.31993e-06 4.22346 1.21631 2.41341 3.34485 2.41341C4.25708 2.41341 5.16932 2.71508 5.4734 3.62011V5.75401e-07H7.60194V9.65363H5.77748V8.74861H5.4734ZM3.64893 3.62011C2.43262 3.62011 1.82446 4.82682 1.82446 6.03352C1.82446 7.24022 2.43262 8.44693 3.64893 8.44693C4.86524 8.44693 5.4734 7.24022 5.4734 6.03352C5.4734 4.82682 5.16932 3.62011 3.64893 3.62011Z" transform="translate(72.0674 41.6313)" fill="black"/>
<path d="M1.82447 4.52514C1.82447 5.73184 2.43262 6.3352 3.64893 6.3352C4.56117 6.3352 5.16932 5.73185 5.16932 5.43017H6.99378C6.38563 7.24023 5.16932 7.84358 3.64893 7.84358C1.52039 7.84358 0 6.3352 0 3.92179C0 1.81006 1.52039 -1.1508e-06 3.64893 -1.1508e-06C6.08156 -1.1508e-06 7.29786 2.11173 7.29786 4.22346H1.82447V4.52514ZM4.86524 3.31844C4.56117 2.41341 4.25709 1.81006 3.34486 1.81006C2.12854 1.81006 1.82447 2.71508 1.82447 3.31844H4.86524Z" transform="translate(80.5811 43.4413)" fill="black"/>
<path d="M0.304079 0.301677H2.12855V1.2067C2.7367 0.301675 3.64893 0 4.25709 0C6.38563 0 6.99378 1.2067 6.99378 3.01676V7.5419H4.86524V3.62011C4.86524 2.41341 4.56117 1.81006 3.64893 1.81006C2.43262 1.81006 2.12855 2.41341 2.12855 3.92179V7.5419H0V0.301677H0.304079Z" transform="translate(88.1826 43.743)" fill="black"/>
<path d="M3.04078 2.11173H4.56116V3.31844H3.04078V6.93855C3.04078 7.5419 3.34485 7.84358 3.95301 7.84358C4.25708 7.84358 4.25709 7.84358 4.56116 7.84358V9.35196C4.25709 9.35196 3.64893 9.35196 3.34485 9.35196C2.12854 9.35196 1.21631 9.05028 1.21631 7.5419V3.31844H0V2.11173H1.21631V-1.1508e-06H3.34485V2.11173H3.04078Z" transform="translate(95.7852 41.9329)" fill="black"/>
<path d="M2.12854 0H-2.31993e-06V9.95531H2.12854V0Z" transform="translate(101.257 41.3297)" fill="black"/>
<path d="M4.25709 7.84357C3.95301 9.05028 3.04078 9.35195 1.82447 9.35195C1.52039 9.35195 0.912231 9.35195 0.608153 9.35195V7.84357C0.912231 7.84357 1.52039 7.84357 1.82447 7.84357C2.43262 7.84357 2.7367 6.93855 2.43263 6.63687L-4.63986e-06 -5.75401e-07H2.12854L3.64893 4.82681L5.16932 -5.75401e-07H7.29786L4.25709 7.84357Z" transform="translate(103.689 44.3464)" fill="black"/>
<path d="M3.68749 0C5.81603 0 7.33642 1.50838 7.33642 3.92179C7.33642 6.3352 5.81603 7.84358 3.68749 7.84358C1.55894 7.84358 0.0385525 6.3352 0.0385525 3.92179C-0.265525 1.50838 1.25487 0 3.68749 0ZM3.68749 6.03352C4.9038 6.03352 5.51195 4.82682 5.51195 3.62011C5.51195 2.41341 5.20787 1.2067 3.68749 1.2067C2.47118 1.2067 1.86303 2.41341 1.86303 3.62011C1.86303 5.12849 2.1671 6.03352 3.68749 6.03352Z" transform="translate(114.902 43.743)" fill="black"/>
<path d="M4.63986e-06 0.301677H1.82447V1.50838C2.12854 0.603352 3.04077 0 4.25708 0H4.56117V1.81006C4.25709 1.81006 3.95301 1.81006 3.95301 1.81006C2.43262 1.81006 2.12854 2.71508 2.12854 4.22346V7.5419H4.63986e-06V0.301677Z" transform="translate(122.849 43.743)" fill="black"/>
<path d="M6.99379 6.93855C6.99379 8.14525 6.68971 10.257 3.34486 10.257C1.82447 10.257 0.30408 9.65363 0.30408 7.84358H2.12854C2.43262 8.44693 3.04077 8.7486 3.64893 8.7486C4.86524 8.7486 5.16932 8.14525 5.16932 6.93855V6.03352C4.86524 6.63687 3.953 7.24022 3.04077 7.24022C0.912228 7.24022 -4.63986e-06 5.73184 -4.63986e-06 3.62011C-4.63986e-06 1.81006 1.21631 0 3.04077 0C3.953 0 4.86524 0.301675 5.16932 1.2067V0.301677H6.99379V6.93855ZM5.16932 3.92179C5.16932 2.71508 4.86524 1.81006 3.34486 1.81006C2.12855 1.81006 1.82447 2.71508 1.82447 3.92179C1.82447 4.82682 2.12855 6.03352 3.34486 6.03352C4.56117 5.73184 5.16932 4.82682 5.16932 3.92179Z" transform="translate(128.016 43.743)" fill="black"/>
<path d="M2.31993e-06 2.41341C2.31993e-06 0.603352 1.82446 0 3.34485 0C4.86524 0 6.38563 0.301675 6.38563 2.11173V5.73184C6.38563 6.33519 6.38563 6.93855 6.68971 7.24022H4.56117C4.56117 6.93855 4.56117 6.63687 4.56117 6.63687C4.25709 7.5419 3.34485 7.5419 2.43262 7.5419C0.912233 7.5419 2.31993e-06 6.93855 2.31993e-06 5.43017C2.31993e-06 3.92179 1.21631 3.31844 2.43262 3.31844C3.64893 3.01676 4.86524 3.31844 4.86524 2.41341C4.86524 1.50838 4.25709 1.50838 3.64894 1.50838C3.04078 1.50838 2.43262 1.81005 2.43262 2.71508H2.31993e-06V2.41341ZM4.56117 3.92179C4.25709 4.22346 3.64893 4.22346 3.04078 4.22346C2.43262 4.22346 1.82446 4.52514 1.82446 5.12849C1.82446 5.73185 2.43262 6.03352 3.04078 6.03352C4.56117 6.03352 4.56117 4.82682 4.56117 4.52514V3.92179Z" transform="translate(135.924 43.743)" fill="black"/>
<path d="M0.304075 0.301677H2.12855V1.2067C2.7367 0.301675 3.64893 0 4.25708 0C6.38563 0 6.99379 1.2067 6.99379 3.01676V7.5419H4.86524V3.62011C4.86524 2.41341 4.56117 1.81006 3.64894 1.81006C2.43263 1.81006 2.12855 2.41341 2.12855 3.92179V7.5419H2.31993e-06V0.301677H0.304075Z" transform="translate(143.525 43.743)" fill="black"/>
<path d="M2.12854 1.50838H-2.31993e-06V-5.75401e-07H2.12854V1.50838ZM0.304082 2.71509H2.43262V9.95531H0.304082V2.71509Z" transform="translate(151.43 41.3297)" fill="black"/>
<path d="M-2.31993e-06 5.73184L3.64893 1.50838H0.304082V1.1508e-06H6.38564V1.50838L2.7367 5.73184H6.68971V7.24022H-2.31993e-06V5.73184Z" transform="translate(154.471 44.0447)" fill="black"/>
<path d="M1.82446 4.52514C1.82446 5.73184 2.43263 6.3352 3.64894 6.3352C4.56117 6.3352 5.16932 5.73185 5.16932 5.43017H6.99379C6.38563 7.24023 5.16932 7.84358 3.64894 7.84358C1.52039 7.84358 2.31993e-06 6.3352 2.31993e-06 3.92179C2.31993e-06 1.81006 1.52039 -1.1508e-06 3.64894 -1.1508e-06C6.08156 -1.1508e-06 7.29786 2.11173 7.29786 4.22346H1.82446V4.52514ZM4.86524 3.31844C4.56116 2.41341 4.25708 1.81006 3.34485 1.81006C2.12854 1.81006 1.82446 2.71508 1.82446 3.31844H4.86524Z" transform="translate(161.77 43.4413)" fill="black"/>
<path d="M5.4734 8.74861C4.86524 9.65364 4.25708 9.95531 3.34485 9.95531C1.21631 9.95531 2.31993e-06 8.14525 2.31993e-06 6.03352C2.31993e-06 4.22346 1.21631 2.41341 3.34485 2.41341C4.25708 2.41341 5.16932 2.71508 5.4734 3.62011V5.75401e-07H7.60194V9.65363H5.77747V8.74861H5.4734ZM3.64894 3.62011C2.43263 3.62011 1.82446 4.82682 1.82446 6.03352C1.82446 7.24022 2.43263 8.44693 3.64894 8.44693C4.86525 8.44693 5.4734 7.24022 5.4734 6.03352C5.4734 4.82682 4.86525 3.62011 3.64894 3.62011Z" transform="translate(169.372 41.6313)" fill="black"/>
<path d="M3.04078 1.81006H0V-5.75401e-07H8.2101V1.81006H5.16932V9.95531H3.04078V1.81006Z" transform="translate(180.926 41.3297)" fill="black"/>
<path d="M0 -5.75401e-07H7.29787V1.81006H2.12855V3.92179H6.99379V5.73184H2.12855V8.14525H7.60194V9.95531H0V-5.75401e-07Z" transform="translate(190.049 41.3297)" fill="black"/>
<path d="M9.27971e-06 -5.75401e-07H4.25708C6.99378 -5.75401e-07 8.81824 1.50838 8.81824 4.82682C8.81824 7.84358 7.29785 9.95531 4.25708 9.95531H9.27971e-06V-5.75401e-07ZM2.12854 8.14525H3.953C5.16932 8.14525 6.38563 7.24022 6.38563 5.12849C6.38563 3.01676 5.77747 1.81006 3.64893 1.81006H2.12854V8.14525Z" transform="translate(198.562 41.3297)" fill="black"/>
<path d="M1.82448 4.52514C1.82448 5.73184 2.43263 6.3352 3.64894 6.3352C4.56117 6.3352 5.16932 5.73185 5.16932 5.43017H6.99379C6.38563 7.24023 5.16932 7.84358 3.64894 7.84358C1.52039 7.84358 -9.27971e-06 6.3352 -9.27971e-06 3.92179C-9.27971e-06 1.81006 1.52039 -1.1508e-06 3.64894 -1.1508e-06C6.08156 -1.1508e-06 7.29786 2.11173 7.29786 4.22346H1.82448V4.52514ZM4.86525 3.31844C4.56117 2.41341 4.2571 1.81006 3.34486 1.81006C2.12855 1.81006 1.82448 2.71508 1.82448 3.31844H4.86525Z" transform="translate(211.942 43.4413)" fill="black"/>
<path d="M4.86524 7.24022H2.73671L4.63986e-06 1.1508e-06H2.12854L3.64893 4.82682L5.16932 1.1508e-06H7.29787L4.86524 7.24022Z" transform="translate(218.633 44.0447)" fill="black"/>
<path d="M1.82447 4.52514C1.82447 5.73184 2.43262 6.3352 3.64893 6.3352C4.56116 6.3352 5.16932 5.73185 5.16932 5.43017H6.99378C6.38563 7.24023 5.16932 7.84358 3.64893 7.84358C1.52039 7.84358 9.27971e-06 6.3352 9.27971e-06 3.92179C9.27971e-06 1.81006 1.52039 -1.1508e-06 3.64893 -1.1508e-06C6.08155 -1.1508e-06 7.29785 2.11173 7.29785 4.22346H1.82447V4.52514ZM5.16932 3.31844C4.86524 2.41341 4.56116 1.81006 3.64893 1.81006C2.43262 1.81006 2.12854 2.71508 2.12854 3.31844H5.16932Z" transform="translate(225.929 43.4413)" fill="black"/>
<path d="M0.304082 0.301677H2.12854V1.2067C2.7367 0.301675 3.64892 0 4.25708 0C6.38562 0 6.99378 1.2067 6.99378 3.01676V7.5419H4.86525V3.62011C4.86525 2.41341 4.56116 1.81006 3.64893 1.81006C2.43262 1.81006 2.12854 2.41341 2.12854 3.92179V7.5419H9.27971e-06V0.301677H0.304082Z" transform="translate(233.531 43.743)" fill="black"/>
<path d="M3.04078 2.11173H4.56117V3.31844H3.04078V6.93855C3.04078 7.5419 3.34485 7.84358 3.953 7.84358C4.25708 7.84358 4.25709 7.84358 4.56117 7.84358V9.35196C4.25709 9.35196 3.64893 9.35196 3.34485 9.35196C2.12854 9.35196 1.21632 9.05028 1.21632 7.5419V3.31844H4.63986e-06V2.11173H1.21632V-1.1508e-06H3.34485V2.11173H3.04078Z" transform="translate(241.438 41.9329)" fill="black"/>
<path d="M9.42641 8.44693H0V0H28.8874V8.44693H19.461V33.1844H9.42641V8.44693Z" fill="#F15F62"/>
<path d="M0 0H27.9751V8.44693H10.3386V12.6704H27.9751V20.514H10.3386V24.7374H27.9751V33.1844H0V0Z" transform="translate(30.4082)" fill="#F15F62"/>
<path d="M0.304075 0H17.0283C27.9751 0 31.9282 8.14525 31.9282 16.5922C31.9282 26.8492 26.4548 33.1844 14.8998 33.1844H2.31993e-06V0H0.304075ZM10.6427 24.7374H14.5957C20.9814 24.7374 21.8936 19.6089 21.8936 16.5922C21.8936 14.4804 21.2854 8.7486 13.6835 8.7486H10.3386V24.7374H10.6427Z" transform="translate(59.9033)" fill="#F15F62"/>
<path d="M13.6835 20.2123L10.6427 15.0838L7.60194 20.2123H1.15996e-06L6.99379 9.95531L0.30408 0H7.90602L10.6427 4.82682L13.3794 0H20.9814L13.9876 9.95531L21.2854 20.2123H13.6835Z" transform="translate(93.0469)" fill="#F15F62"/>
<path d="M0 4.49532e-09H14.2917C18.2447 4.49532e-09 20.9814 1.2067 22.5018 3.31844C23.414 4.52514 24.0221 6.3352 24.0221 8.14525C24.0221 10.257 23.414 12.067 22.1977 13.2737C21.5895 13.8771 20.6773 14.4804 19.461 15.0838C21.2854 15.6872 22.5017 16.5922 23.414 17.1955C24.9344 18.7039 25.5425 20.514 25.5425 23.229C25.5425 25.3408 24.9344 27.1508 23.414 28.9609C21.5895 31.3743 18.2447 32.8827 13.9876 32.8827H0V4.49532e-09ZM12.4672 13.8771C14.2916 13.8771 15.812 13.5754 17.0283 12.9721C18.5487 12.067 19.461 10.5587 19.461 8.44693C19.461 6.3352 18.5487 4.82682 16.7243 4.22346C15.812 3.92179 14.2916 3.62011 12.1631 3.62011H3.95301V13.8771H12.4672ZM13.9876 28.9609C16.7243 28.9609 18.8528 28.0559 20.0691 26.5475C20.6773 25.6425 21.2854 24.4358 21.2854 22.9274C21.2854 20.514 20.0691 19.0056 17.9406 18.1006C16.7243 17.4972 15.2039 17.4972 13.3794 17.4972H4.25709V28.9609H13.9876Z" transform="translate(121.631 0.301697)" fill="black"/>
<path d="M16.4202 1.50838C17.9406 2.41341 19.1569 3.31844 20.0691 4.52514C20.9814 5.73184 21.2854 7.24022 21.5895 8.7486C21.8936 9.95531 21.8936 11.4637 21.8936 13.8771H4.25708C4.25708 16.2905 4.86525 18.4022 6.08156 19.6089C7.29787 20.8156 8.81825 21.7207 10.9468 21.7207C13.0753 21.7207 14.5957 21.1173 16.1161 19.6089C16.7243 18.7039 17.3324 17.7989 17.6365 16.8939H21.5895C21.5895 17.7989 21.2854 18.7039 20.6773 19.9106C20.0691 21.1173 19.461 22.0223 18.5487 22.6257C17.3324 23.8324 15.812 24.7374 13.9876 25.0391C13.0753 25.3408 11.859 25.3408 10.6427 25.3408C7.60195 25.3408 5.16932 24.1341 3.04078 22.0223C0.912238 19.9106 4.63986e-06 16.8939 4.63986e-06 12.9721C4.63986e-06 9.05028 0.912238 6.03352 3.04078 3.62011C5.16932 1.2067 7.90601 1.4385e-07 11.2509 1.4385e-07C13.3794 0.301676 14.8998 0.905028 16.4202 1.50838ZM17.9406 11.162C17.6365 9.35196 17.3324 8.14525 16.7243 6.93855C15.508 5.12849 13.6835 3.92179 11.2509 3.92179C9.4264 3.92179 7.90601 4.52514 6.6897 6.03352C5.47339 7.24022 4.86525 9.05028 4.56117 11.162H17.9406Z" transform="translate(150.216 8.14529)" fill="black"/>
<path d="M4.63986e-06 0.603352H3.95301V4.82682C4.25709 3.92179 5.16932 3.01676 6.38563 1.81006C7.60194 0.603352 9.12233 -1.4385e-07 10.6427 -1.4385e-07H10.9468C11.2509 -1.4385e-07 11.5549 -1.4385e-07 11.859 -1.4385e-07V4.22346C11.5549 4.22346 11.2509 4.22346 11.2509 4.22346C10.9468 4.22346 10.9468 4.22346 10.6427 4.22346C8.51418 4.22346 6.99379 4.82682 6.08156 6.03352C4.86525 7.24022 4.56117 8.7486 4.56117 10.5587V24.7374H0.608151V0.603352H4.63986e-06Z" transform="translate(177.583 8.4469)" fill="black"/>
<path d="M4.63986e-06 0.603352H3.953V3.92179C5.16931 2.41341 6.38563 1.50838 7.60195 0.905028C8.81826 0.301676 10.3386 -1.4385e-07 11.859 -1.4385e-07C15.2039 -1.4385e-07 17.6365 1.2067 18.8528 3.62011C19.461 4.82682 19.7651 6.63687 19.7651 9.05028V24.7374H15.508V9.65363C15.508 8.14525 15.2039 6.93855 14.8998 6.03352C14.2917 4.52514 13.0753 3.62011 10.9468 3.62011C10.0346 3.62011 9.12232 3.62011 8.51416 3.92179C7.29785 4.22346 6.38562 4.82682 5.47339 6.03352C4.86523 6.93855 4.2571 7.5419 4.2571 8.44693C3.95302 9.35196 3.953 10.5587 3.953 12.067V24.7374H4.63986e-06V0.603352Z" transform="translate(192.787 8.4469)" fill="black"/>
</svg>
