<svg width="22" height="22" viewBox="0 0 22 22" fill="none" xmlns="http://www.w3.org/2000/svg">
<path d="M20.92 2C20.15 2.35 19.32 2.58 18.46 2.69C19.34 2.16 20.02 1.32 20.34 0.31C19.51 0.81 18.59 1.16 17.62 1.36C16.83 0.5 15.72 0 14.46 0C12.11 0 10.19 1.92 10.19 4.29C10.19 4.63 10.23 4.96 10.3 5.27C6.74 5.09 3.57 3.38 1.46 0.79C1.09 1.42 0.88 2.16 0.88 2.94C0.88 4.43 1.63 5.75 2.79 6.5C2.08 6.5 1.42 6.3 0.84 6C0.84 6 0.84 6 0.84 6.03C0.84 8.11 2.32 9.85 4.28 10.24C3.92 10.34 3.54 10.39 3.15 10.39C2.88 10.39 2.61 10.36 2.35 10.31C2.89 12 4.46 13.26 6.35 13.29C4.89 14.45 3.04 15.13 1.02 15.13C0.68 15.13 0.34 15.11 -3.8147e-08 15.07C1.9 16.29 4.16 17 6.58 17C14.46 17 18.79 10.46 18.79 4.79C18.79 4.6 18.79 4.42 18.78 4.23C19.62 3.63 20.34 2.87 20.92 2Z" transform="translate(0 3)" fill="white"/>
</svg>
